<?xml version="1.0" encoding="utf-8"?>
<!-- Generator: Adobe Illustrator 16.0.0, SVG Export Plug-In . SVG Version: 6.00 Build 0)  -->
<!DOCTYPE svg PUBLIC "-//W3C//DTD SVG 1.1//EN" "http://www.w3.org/Graphics/SVG/1.1/DTD/svg11.dtd">
<svg version="1.1" id="Layer_1" xmlns="http://www.w3.org/2000/svg" xmlns:xlink="http://www.w3.org/1999/xlink" x="0px" y="0px"
	 width="200px" height="200px" viewBox="0 0 200 200" enable-background="new 0 0 200 200" xml:space="preserve">
<path fill="#FFFFFF" stroke="#000000" stroke-width="0.4" stroke-miterlimit="10" d="M99.999,191.938
	c-50.694,0-91.936-41.244-91.936-91.939c0-50.693,41.242-91.935,91.936-91.935c24.557,0,47.644,9.562,65.009,26.926
	c17.366,17.365,26.93,40.452,26.93,65.009C191.938,150.693,150.694,191.938,99.999,191.938z M99.999,11.063
	c-49.04,0-88.936,39.896-88.936,88.935c0,49.041,39.896,88.939,88.936,88.939c49.041,0,88.938-39.898,88.938-88.939
	c0-23.756-9.252-46.089-26.051-62.887S123.754,11.062,99.999,11.063z"/>
<path fill="none" stroke="#000000" stroke-width="0.4" stroke-miterlimit="10" d="M100,100"/>
<path fill="none" stroke="#000000" stroke-width="0.4" stroke-miterlimit="10" d="M100,100"/>
<path fill="none" stroke="#000000" stroke-width="0.4" stroke-miterlimit="10" d="M100,100"/>
<polygon fill="#FFFFFF" stroke="#000000" stroke-width="0.4" stroke-miterlimit="10" points="75.528,151.703 73.407,149.582 
	123.411,99.583 74.237,50.417 76.358,48.296 127.653,99.583 "/>
</svg>
